inDegrees=yes
name=ik_S42_A06_T01
DataType=double
version=3
OpenSimVersion=4.3-2021-08-27-4bc7ad9
endheader
time	pelvis_tilt	pelvis_list	pelvis_rotation	pelvis_tx	pelvis_ty	pelvis_tz	hip_flexion_r	hip_adduction_r	hip_rotation_r	knee_angle_r	knee_angle_r_beta	ankle_angle_r	subtalar_angle_r	mtp_angle_r	hip_flexion_l	hip_adduction_l	hip_rotation_l	knee_angle_l	knee_angle_l_beta	ankle_angle_l	subtalar_angle_l	mtp_angle_l	lumbar_extension	lumbar_bending	lumbar_rotation	arm_flex_r	arm_add_r	arm_rot_r	elbow_flex_r	pro_sup_r	wrist_flex_r	wrist_dev_r	arm_flex_l	arm_add_l	arm_rot_l	elbow_flex_l	pro_sup_l	wrist_flex_l	wrist_dev_l
7.319999999999932	-7.639133100333917	0.185904326010586	20.64089246733593	0	0.9399999999999999	0	34.56537711266662	-11.60455654239886	-9.957405626179577	45.95558957954867	0.8020763478583208	0	0	0	34.56537711266662	-11.60455654239886	-9.957405626179577	45.95558957954867	0.8020763478583208	0	0	0	-5.97214377451994	0.9025078185676467	0.6049440805799864	35.00587220932138	-0.4367665001350948	11.36440652609313	47.73825865546669	132.237145072337	0	0	67.01849153209662	-0.4231630307395535	3.1630326577505	46.2686883356576	85.3857961632968	0	0
7.339999999999931	-7.665283052842451	0.2645825037633512	20.30743041354763	0	0.9399999999999999	0	34.57070095011598	-11.60174071129276	-9.957453459647004	45.9586716048152	0.8021301393468515	0	0	0	34.57070095011598	-11.60174071129276	-9.957453459647004	45.9586716048152	0.8021301393468515	0	0	0	-5.969790840855047	0.9870200767980577	0.5995640302362792	35.17412704345043	-0.2645061172734921	11.77846238613218	47.51417184465539	132.2686116262176	0	0	67.18970409305493	0.4835304219740722	3.584534374940874	45.68331478656884	85.71295233220633	0	0
7.359999999999931	-7.690979321703945	0.3372802921591417	19.95943031276541	0	0.9399999999999999	0	34.57482223555241	-11.59956520755642	-9.957490447782693	45.96105992320062	0.8021718233662628	0	0	0	34.57482223555241	-11.59956520755642	-9.957490447782693	45.96105992320062	0.8021718233662628	0	0	0	-5.969627128226792	1.061731384560369	0.6337802962916874	35.32319327769072	-0.1177596571600424	12.15576465374029	47.32325080387595	132.2747713241671	0	0	67.24474886966382	1.579569512695713	4.316394220245447	44.99320303201376	85.96995963078292	0	0
7.379999999999931	-7.762165872057897	0.4830359465811621	19.4387379410269	0	0.9399999999999999	0	34.5799091896645	-11.59688019952012	-9.957536108254331	45.96400547366788	0.8022232329202004	0	0	0	34.5799091896645	-11.59688019952012	-9.957536108254331	45.96400547366788	0.8022232329202004	0	0	0	-5.987038356351057	1.237704970820833	0.503563583723994	35.5084673435961	0.0571034059964362	12.87082100235026	47.12720893525958	132.3177339614647	0	0	67.36909449231705	2.291581377142544	4.594232282175306	44.1938301447416	86.22017431041414	0	0
7.39999999999993	-7.756512649954138	0.4836971648735392	19.31046797463889	0	0.9399999999999999	0	34.5834486905377	-11.59501769498704	-9.957567820896427	45.96605941142685	0.8022590808967253	0	0	0	34.5834486905377	-11.59501769498704	-9.957567820896427	45.96605941142685	0.8022590808967253	0	0	0	-5.983112248643282	1.22284172000544	0.6430313919165239	35.61874061882467	0.1332355391879501	12.82938535358899	46.99183290064801	132.3348639751015	0	0	67.46248480422413	3.239259906000649	5.438179053028265	43.70701210601982	86.17837172912934	0	0
7.41999999999993	-7.789316253406743	0.5527713882444365	18.96968658583461	0	0.9399999999999999	0	34.58746678247423	-11.59290252056968	-9.957603836033524	45.96838847585364	0.8022997307394638	0	0	0	34.58746678247423	-11.59290252056968	-9.957603836033524	45.96838847585364	0.8022997307394638	0	0	0	-5.992285649936234	1.298550844471352	0.6558882765804204	35.76058914445009	0.2545550939620353	13.12039237832923	46.82651383644781	132.3860870534502	0	0	67.49207745620488	4.153110183776982	6.2224791966191	42.89571163040858	86.12516432348619	0	0
7.439999999999929	-7.861815632879862	0.6937001479656649	18.55322858046237	0	0.9399999999999999	0	34.58968429967155	-11.59174434953244	-9.957623612933768	45.96968304476862	0.8023223252294241	0	0	0	34.58968429967155	-11.59174434953244	-9.957623612933768	45.96968304476862	0.8023223252294241	0	0	0	-6.01342035382106	1.474943052349471	0.4724744857251777	35.90756620935839	0.3927077545644423	13.74762126646081	46.68787932616883	132.4790129247974	0	0	67.48511454667072	3.938453762927635	5.793688401619529	42.60682133869132	86.22427391521511	0	0
7.459999999999929	-7.864067349981474	0.7218102452543883	18.26774103221271	0	0.9399999999999999	0	34.59353096337364	-11.58972274407695	-9.95765806296245	45.97191366153842	0.8023612568364075	0	0	0	34.59353096337364	-11.58972274407695	-9.95765806296245	45.97191366153842	0.8023612568364075	0	0	0	-6.007202461596375	1.500012056252078	0.5041186297642813	35.90896975258676	0.463989549467903	13.97805071222307	46.64361342660671	132.333938666807	0	0	67.52178569121034	4.830272411213951	6.555116776812475	41.79021944898656	86.24587873433445	0	0
7.479999999999928	-7.849355896889927	0.7410406475436357	17.90486748169131	0	0.9399999999999999	0	34.59689691918141	-11.58795634337974	-9.957688183625796	45.97386693248379	0.8023953478455876	0	0	0	34.59689691918141	-11.58795634337974	-9.957688183625796	45.97386693248379	0.8023953478455876	0	0	0	-5.989190627721442	1.505237554585469	0.5969431039960587	35.97057298052655	0.6819197012358381	14.12749464965274	46.51388652444733	132.334339392224	0	0	67.65014085642868	6.237557460103432	7.769180508674972	40.94582533573173	86.04386234949214	0	0
7.499999999999928	-7.8453521148655	0.7597786947749741	17.62504741582002	0	0.9399999999999999	0	34.60054761979679	-11.58604120917205	-9.957720848925067	45.97598481913471	0.8024323119408303	0	0	0	34.60054761979679	-11.58604120917205	-9.957720848925067	45.97598481913471	0.8024323119408303	0	0	0	-5.980311123035047	1.521767484083543	0.6044376998031333	36.15118115623643	1.074024375417374	14.15693715771161	46.17064230909943	132.4618161627276	0	0	67.5688636560827	7.009005642948555	8.327044889982394	40.18300526516652	85.91181252548101	0	0
7.519999999999928	-7.847501336563554	0.759738380428723	17.51339518993486	0	0.9399999999999999	0	34.60560168342493	-11.58339117279524	-9.957766064492345	45.97891573445396	0.8024834660632485	0	0	0	34.60560168342493	-11.58339117279524	-9.957766064492345	45.97891573445396	0.8024834660632485	0	0	0	-5.984156684942044	1.51226586140985	0.7105317484460721	36.16849879844808	1.079450025214413	14.15255530542174	46.18156399913234	132.4391995814002	0	0	67.55903226238726	7.914497119723363	8.685232385850654	39.4054185581873	86.30140187059145	0	0
7.539999999999927	-7.882206779239087	0.8037133109263782	17.2424405676845	0	0.9399999999999999	0	34.60999485049284	-11.58109073709338	-9.95780534060148	45.98146439088121	0.802527948509406	0	0	0	34.60999485049284	-11.58109073709338	-9.95780534060148	45.98146439088121	0.802527948509406	0	0	0	-6.003983543448254	1.571464662150676	0.6488062516837452	36.17222454921738	1.179970022432466	14.53213755705013	46.26213593346007	132.4661820486321	0	0	67.71002577242909	8.417111329953523	8.570429118019794	38.73732943296184	86.71487842229739	0	0
7.559999999999927	-7.925053536035976	0.8385016952302999	17.0369709498036	0	0.9399999999999999	0	34.61484275901579	-11.57855665282409	-9.957848640500606	45.98427915117557	0.802577075344197	0	0	0	34.61484275901579	-11.57855665282409	-9.957848640500606	45.98427915117557	0.802577075344197	0	0	0	-6.03506725486125	1.614930140711261	0.6739897435235553	36.38022725699248	1.627321287619329	14.62698992744044	45.87866528037884	132.8166648867891	0	0	67.77562110744687	9.05199302384349	8.718467729808147	38.09232059656732	87.08694455642258	0	0
7.579999999999926	-7.99706009655149	0.9119561633616204	16.86675431584831	0	0.9399999999999999	0	34.61715564191574	-11.57736480733981	-9.957869110471547	45.98563987452242	0.8026008244468082	0	0	0	34.61715564191574	-11.57736480733981	-9.957869110471547	45.98563987452242	0.8026008244468082	0	0	0	-6.082028624981458	1.713205005262866	0.6117275861652952	36.45230041614043	1.761923107683474	15.02072866228775	45.86919925420017	132.9683462044388	0	0	67.82067738136868	9.077414919055549	8.549254860783099	37.81521610498918	87.08821339978788	0	0
7.599999999999926	-8.026253095912672	0.9288270666259343	16.7339665876089	0	0.9399999999999999	0	34.62107878368722	-11.57532104805289	-9.957904082509193	45.9879223567435	0.8026406612766844	0	0	0	34.62107878368722	-11.57532104805289	-9.957904082509193	45.9879223567435	0.8026406612766844	0	0	0	-6.106514775411794	1.73137296656037	0.6788317072952422	36.50781493203237	1.921701395453282	15.20175395090471	45.83241607354392	133.0691674676523	0	0	67.83589827360154	9.723936098434505	8.830838918250873	37.34828017482675	87.1964746044912	0	0
7.619999999999925	-8.099446977757131	0.9937127301770227	16.58571733015376	0	0.9399999999999999	0	34.62383715053617	-11.57389596052717	-9.957928542855329	45.98953894025187	0.8026688759815388	0	0	0	34.62383715053617	-11.57389596052717	-9.957928542855329	45.98953894025187	0.8026688759815388	0	0	0	-6.157224983548265	1.821893536560081	0.6139973045118965	36.6018317051478	2.058486009372658	15.52448284275511	45.7454446719892	133.1412506658416	0	0	67.92041059329209	9.711942000849559	8.635000125830702	37.0551142527573	87.30910694922453	0	0
